<svg xmlns="http://www.w3.org/2000/svg" viewBox="0 0 131.4 165.5"><path d="M-5723 101c-16.12-5.5-28.24-18-31.35-33-.545-2.8-.97-16-.95-28l.034-23 1.813 5.3c4.136 12 15.12 23 27.24 27 7.17 2.7 19.23 3.6 25.24 2 4.136-1 323.5-151 347.5-164 13.12-6.5 19.43-15.1 23.43-25.1 1.512-4.2 2.404-3.13 2.103 22.1-.233 25-.364 27-2.524 31-3.535 7.6-8.783 14-15.12 18-5.658 3.9-342.5 164-352.5 167-6.66 2.4-19.23 2.4-26.24.072z" style="fill:#f9f9f9;stroke-width:1.001" transform="matrix(.3062 0 0 .31 1762.382 103.526)"/><path d="M-4284 336c-14.17-4.72-25.22-14.8-29.24-27.6-2.02-6.33-2.02-9-2.02-165 0-103 .364-160 1.005-164 2.422-12.9 11.16-23.8 23.22-28.7 5.558-2.58 8.382-3.18 15.18-3.59 4.844-.218 10.05.127 12.16.805 3.738 1.08 343.7 153 355.8 158 15.18 7.68 24.22 25.7 19.2 41.5-4.542 15.8-11.16 20.8-38.39 34.7-88.84 41.7-330.6 155-333.7 156-8.341 2.29-20-.436-23.22-2.17z" style="fill:#75e5ee;stroke-width:.9995" transform="matrix(.3062 0 0 .31 1321.428 16.416)"/><path d="m-4315 302.4-.27-141c-.182-92 .08-143 .743-147 3.21-17 17.06-30 34.11-33 4.626-.73 8.338-.72 12.04.039 4.214.77 54.28 23 176.6 79 94.42 43 176.6 75.9 180.6 77.9 6.833 3.2 20.07 14 20.07 17 0 .88-1.344 7.53-4.565 10.6-6.933 6.7 6.462-.148-199.7 97.9-88.4 42-162.5 74-165.6 75-5.528 1.5-17.17-.544-22.79-2.818-6.572-2.12-9.983-3.91-15.15-7.8-6.864-4.55-11.54-12.43-13.85-18.1-.989-2.557-1.267-5.186-2.32-7.721z" style="fill:#5edcee;stroke-width:1.002" transform="matrix(.3062 0 0 .31 1321.428 16.416)"/><path d="M-4283 477c-16.2-5.4-28.3-17.7-31.3-32.4-.565-2.94-.147-24.89-.107-53.39-.54-41.33-.195-46.2.87-43.97 4.74 14.7 19.93 26.67 37.03 28.57 14.1 2.06 4.44 5.99 187-78.5 91.9-42.2 172-79.5 176-82.4 11.1-5.59 13.8-12.7 21.9-22.3l3.6-6.19.964 51c.966 51-.323 52-2.52 55.9-3.53 7.46-8.78 13.7-15.1 17.7-5.65 3.83-342 161-352 164-6.66 2.36-19.2 2.36-26.2.07z" style="fill:#26c5fd;stroke-width:.995" transform="matrix(.3062 0 0 .31 1321.428 16.416)"/><path d="M-4314 418.3c.061-20-.543-23.3.678-19.3 4.07 13 14.5 25.9 27.7 29.9 6.41 1.8 18.3 2.1 24.4.48 5.09-1.4 349-163 356-167 8.24-5.1 15.3-14 18.3-23 .448-1.4.712 9 .59 23-.204 24-.346 26-2.54 31-3.87 9.5-12.2 17-25.4 24-6.01 3-86.5 41-179 84l-168 79-9.67.31c-7.33.24-11.2-.12-15.3-1.5-13.7-7.74-24.8-18.8-27.6-31.2-.298-10.19-.165-20.8-.158-29.69z" style="fill:#4e9eed;stroke-width:1.01" transform="matrix(.3062 0 0 .31 1321.428 16.416)"/></svg>