<svg xmlns="http://www.w3.org/2000/svg" xml:space="preserve" x="0px" y="0px" style="enable-background:new 0 0 1000 1000" viewBox="0 0 1000 1000"><path d="M467 532V76C215.158 76 11 280.158 11 532c0 96.67 30.084 186.312 81.397 260.08L11 988l195.503-81.69C280.351 957.8 370.147 988 467 988c251.842 0 456-204.158 456-456H467z" style="fill:#2d4b70"/><circle cx="256" cy="390" r="127" style="fill:#fff"/><circle cx="312" cy="345" r="71" style="fill:#2d4b70"/><path d="M989 464c0 1.67-.01 3.34-.03 5H533V8c251.84 0 456 204.16 456 456z" style="fill:#db052c"/><path d="M923 464c0 1.67-.01 3.34-.03 5H533V74c215.39 0 390 174.61 390 390z" style="fill:#ee7a00"/><path d="M857 464c0 1.67-.01 3.34-.05 5H533V140c178.94 0 324 145.06 324 324z" style="fill:#f2ea1a"/><path d="M792 464c0 1.67-.02 3.34-.05 5H533V205c143.04 0 259 115.96 259 259z" style="fill:#009b4d"/><path d="M727 464c0 1.67-.02 3.34-.06 5H533V270c107.14 0 194 86.86 194 194z" style="fill:#4ec1f0"/><path d="M661 464c0 1.67-.03 3.34-.09 5H533V336c70.69 0 128 57.31 128 128z" style="fill:#0065b1"/><path d="M597 464c0 1.68-.06 3.35-.2 5H533v-69c35.35 0 64 28.65 64 64z" style="fill:#633790"/></svg>